<?xml version="1.0" encoding="UTF-8"?>
<svg id="Capa_1" data-name="Capa 1" xmlns="http://www.w3.org/2000/svg" xmlns:xlink="http://www.w3.org/1999/xlink" viewBox="0 0 110 110">
  <defs>
    <style>
      .cls-1 {
        fill: #a80000;
        stroke-width: 0px;
      }

      .cls-2 {
        filter: url(#drop-shadow-1);
      }
    </style>
    <filter id="drop-shadow-1" filterUnits="userSpaceOnUse">
      <feOffset dx="2" dy="1"/>
      <feGaussianBlur result="blur" stdDeviation="2"/>
      <feFlood flood-color="#000" flood-opacity=".35"/>
      <feComposite in2="blur" operator="in"/>
      <feComposite in="SourceGraphic"/>
    </filter>
  </defs>
  <g class="cls-2">
    <g>
      <rect class="cls-1" x="46.55" y="22.7" width="17.72" height="14.66"/>
      <path class="cls-1" d="m55,4.94C27.36,4.94,4.95,27.36,4.95,55s22.41,50.06,50.05,50.06,50.05-22.41,50.05-50.06S82.64,4.94,55,4.94Zm-31.62,87.13l6.08-54.72h12.31v-19.44h27.27v4.78h0v14.66h11.49l6.08,54.72H23.38Z"/>
    </g>
    <path class="cls-1" d="m31.66,53h6.88v2.03h-2.36v12.21h-2.16v-12.21h-2.36v-2.03Z"/>
    <path class="cls-1" d="m40.2,53h2.16v14.24h-2.16v-14.24Z"/>
    <path class="cls-1" d="m44.72,53h6.12v2.03h-3.97v3.97h3.15v2.03h-3.15v4.17h3.97v2.03h-6.12v-14.24Z"/>
    <path class="cls-1" d="m52.65,53h2.38l2.75,9.56v-9.56h2.12v14.24h-2.28l-2.85-9.11v9.11h-2.12v-14.24Z"/>
    <path class="cls-1" d="m62.25,53h3.38c2.05,0,3.38,1.34,3.38,3.4v7.45c0,2.05-1.32,3.4-3.38,3.4h-3.38v-14.24Zm3.28,12.21c.83,0,1.32-.49,1.32-1.32v-7.53c0-.83-.49-1.32-1.32-1.32h-1.12v10.17h1.12Z"/>
    <path class="cls-1" d="m75.39,64.09h-2.32l-.47,3.15h-2.16l2.36-14.24h2.89l2.36,14.24h-2.2l-.47-3.15Zm-.28-2.08l-.87-5.96-.87,5.96h1.75Z"/>
    <path class="cls-1" d="m31.74,83.42v-7.77c0-2.05,1.38-3.44,3.46-3.44s3.46,1.38,3.46,3.44v7.77c0,2.05-1.38,3.44-3.46,3.44s-3.46-1.38-3.46-3.44Zm4.76,0v-7.77c0-.9-.51-1.4-1.3-1.4s-1.3.51-1.3,1.4v7.77c0,.9.51,1.4,1.3,1.4s1.3-.51,1.3-1.4Z"/>
    <path class="cls-1" d="m40.83,72.41h2.38l2.75,9.56v-9.56h2.12v14.24h-2.28l-2.85-9.11v9.11h-2.12v-14.24Z"/>
    <path class="cls-1" d="m50.43,72.41h2.16v12.21h3.85v2.03h-6v-14.24Z"/>
    <path class="cls-1" d="m58.1,72.41h2.16v14.24h-2.16v-14.24Z"/>
    <path class="cls-1" d="m62.62,72.41h2.38l2.75,9.56v-9.56h2.12v14.24h-2.28l-2.85-9.11v9.11h-2.12v-14.24Z"/>
    <path class="cls-1" d="m72.22,72.41h6.12v2.03h-3.97v3.97h3.15v2.03h-3.15v4.17h3.97v2.03h-6.12v-14.24Z"/>
  </g>
</svg>