<?xml version="1.0" encoding="UTF-8"?>
<svg id="Capa_1" data-name="Capa 1" xmlns="http://www.w3.org/2000/svg" version="1.1" xmlns:xlink="http://www.w3.org/1999/xlink" viewBox="0 0 110 110">
  <defs>
    <style>
      .cls-1 {
        fill: #a80000;
        filter: url(#drop-shadow-1);
        stroke-width: 0px;
      }
    </style>
    <filter id="drop-shadow-1" filterUnits="userSpaceOnUse">
      <feOffset dx="1" dy="3"/>
      <feGaussianBlur result="blur" stdDeviation="2"/>
      <feFlood flood-color="#000" flood-opacity=".2"/>
      <feComposite in2="blur" operator="in"/>
      <feComposite in="SourceGraphic"/>
    </filter>
  </defs>
  <path class="cls-1" d="M55,4.5C27.11,4.5,4.5,27.11,4.5,55s22.61,50.5,50.5,50.5,50.5-22.61,50.5-50.5S82.89,4.5,55,4.5ZM29.26,29.07h51.48c1.13,0,2.21.24,3.18.67-.24.13-.46.3-.65.52l-23.01,26.1c-1.33,1.51-3.25,2.38-5.26,2.38s-3.93-.87-5.26-2.38l-23.41-26.57s-.08-.07-.12-.11c.94-.39,1.97-.61,3.06-.61ZM88.69,72.98c0,4.39-3.56,7.95-7.95,7.95H29.26c-4.39,0-7.95-3.56-7.95-7.95v-35.96c0-1.5.42-2.9,1.15-4.1.04.06.08.12.12.17l23.41,26.57c2.28,2.59,5.56,4.07,9.01,4.07s6.73-1.48,9.01-4.07l23.01-26.1c.2-.23.35-.49.45-.76.77,1.22,1.22,2.67,1.22,4.22v35.96Z"/>
</svg>