<?xml version="1.0" encoding="UTF-8"?>
<svg id="Capa_1" data-name="Capa 1" xmlns="http://www.w3.org/2000/svg" xmlns:xlink="http://www.w3.org/1999/xlink" viewBox="0 0 110 110">
  <defs>
    <style>
      .cls-1 {
        fill: #00bb2d;
        stroke-width: 0px;
      }

      .cls-2 {
        filter: url(#drop-shadow-2);
      }
    </style>
    <filter id="drop-shadow-2" filterUnits="userSpaceOnUse">
      <feOffset dx="2" dy="1"/>
      <feGaussianBlur result="blur" stdDeviation="2"/>
      <feFlood flood-color="#000" flood-opacity=".35"/>
      <feComposite in2="blur" operator="in"/>
      <feComposite in="SourceGraphic"/>
    </filter>
  </defs>
  <g class="cls-2">
    <path class="cls-1" d="m56.1,30.46c-12.85,0-23.31,10.46-23.31,23.31,0,5.1,1.65,9.82,4.44,13.67l-2.91,8.65,8.96-2.87c3.69,2.43,8.1,3.85,12.83,3.85,12.86,0,23.31-10.46,23.31-23.31s-10.46-23.31-23.31-23.31h0Zm13.92,33.95c-.66,1.65-3.63,3.15-4.96,3.22-1.31.07-1.35,1.02-8.51-2.11-7.15-3.14-11.46-10.76-11.8-11.25-.34-.49-2.77-3.99-2.64-7.5.13-3.52,2.04-5.18,2.72-5.87s1.46-.84,1.94-.82.95.09,1.37.11,1.02-.2,1.56,1.25c.54,1.45,1.84,5.02,2.01,5.39.17.36.27.79.01,1.25s-.38.77-.76,1.17-.79.9-1.12,1.21c-.37.34-.76.71-.37,1.45.39.74,1.74,3.13,3.79,5.09,2.64,2.54,4.92,3.37,5.61,3.77.7.38,1.12.34,1.56-.12.43-.47,1.86-2.02,2.37-2.71s.97-.56,1.63-.3c.64.26,4.1,2.12,4.79,2.51.7.38,1.17.58,1.34.89.17.3.11,1.74-.55,3.39v-.02Z"/>
    <path class="cls-1" d="m55,4.94C27.36,4.94,4.94,27.36,4.94,55s22.41,50.06,50.06,50.06,50.06-22.41,50.06-50.06S82.64,4.94,55,4.94Zm1.1,76.84c-4.91,0-9.52-1.26-13.53-3.48l-15.51,4.96,5.05-15.02c-2.55-4.22-4.02-9.17-4.02-14.46,0-15.47,12.54-28,28-28s28,12.54,28,28-12.54,28-28,28Z"/>
  </g>
</svg>